<svg width="315" height="248" viewBox="0 0 315 248" fill="none" xmlns="http://www.w3.org/2000/svg">
<path d="M156.957 210C158.326 210 160.464 209.49 162.687 208.385C210.494 181.607 227 170.385 227 139.867V75.7693C227 67.0131 223.151 64.2079 216.053 61.2326C206.047 57.1518 173.976 45.6757 164.056 42.1904C161.747 41.5103 159.437 41 156.957 41C154.562 41 152.253 41.5103 149.944 42.1904C140.024 45.7606 107.953 57.237 97.9468 61.2326C90.8485 64.1227 87 67.0131 87 75.7693V139.867C87 170.385 103.591 181.521 151.313 208.385C153.536 209.49 155.589 210 156.957 210ZM126.939 153.553V120.569C126.939 115.044 129.077 112.153 133.609 111.473V101.272C133.609 85.6303 143.103 75.0892 156.957 75.0892C170.897 75.0892 180.305 85.6303 180.305 101.272V111.388C184.923 112.069 187.061 114.959 187.061 120.569V153.553C187.061 159.929 184.239 162.904 178.252 162.904H135.662C129.761 162.904 126.939 159.929 126.939 153.553ZM142.59 111.304L171.41 111.218V100.337C171.41 90.306 165.68 83.6749 156.957 83.6749C148.32 83.6749 142.59 90.306 142.59 100.337V111.304Z" fill="white"/>
<path d="M0 124.387V112.375C13.3638 112.375 22.6865 110.115 27.968 105.594C33.3295 101.073 36.0103 93.5167 36.0103 82.925V51.925C36.0103 43.0125 37.0506 35.2948 39.1312 28.7719C41.2918 22.249 44.7728 16.8563 49.5742 12.5938C54.3755 8.33126 60.7774 5.16668 68.7797 3.10001C76.7819 1.03334 86.6648 0 98.4281 0V18.9875C89.1455 18.9875 81.8234 20.15 76.4619 22.475C71.1803 24.8 67.4193 28.4167 65.1786 33.325C63.018 38.1688 61.9377 44.3688 61.9377 51.925V90.675C61.9377 95.7125 61.0975 100.298 59.417 104.431C57.8165 108.565 54.8157 112.117 50.4144 115.088C46.0131 118.058 39.7314 120.351 31.569 121.966C23.4867 123.58 12.9637 124.387 0 124.387ZM98.4281 248C86.6648 248 76.7819 246.967 68.7797 244.9C60.7774 242.833 54.3755 239.669 49.5742 235.406C44.7728 231.144 41.2918 225.751 39.1312 219.228C37.0506 212.705 36.0103 204.988 36.0103 196.075V165.075C36.0103 154.483 33.3295 146.927 27.968 142.406C22.6865 137.885 13.3638 135.625 0 135.625V123.613C12.9637 123.613 23.4867 124.42 31.569 126.034C39.7314 127.649 46.0131 129.942 50.4144 132.912C54.8157 135.883 57.8165 139.435 59.417 143.569C61.0975 147.702 61.9377 152.287 61.9377 157.325V196.075C61.9377 203.631 63.018 209.831 65.1786 214.675C67.4193 219.519 71.1803 223.103 76.4619 225.428C81.8234 227.818 89.1455 229.012 98.4281 229.012V248ZM0 135.625V112.375H28.3281V135.625H0Z" fill="white" />
<path d="M315 123.613V135.625C301.636 135.625 292.274 137.885 286.912 142.406C281.63 146.927 278.99 154.483 278.99 165.075V196.075C278.99 204.988 277.909 212.705 275.749 219.228C273.668 225.751 270.227 231.144 265.426 235.406C260.624 239.669 254.223 242.833 246.22 244.9C238.218 246.967 228.335 248 216.572 248V229.012C225.855 229.012 233.137 227.818 238.418 225.428C243.78 223.103 247.541 219.519 249.701 214.675C251.942 209.831 253.062 203.631 253.062 196.075V157.325C253.062 152.287 253.863 147.702 255.463 143.569C257.143 139.435 260.184 135.883 264.586 132.912C268.987 129.942 275.229 127.649 283.311 126.034C291.473 124.42 302.036 123.613 315 123.613ZM216.572 0C228.335 0 238.218 1.03334 246.22 3.10001C254.223 5.16668 260.624 8.33126 265.426 12.5938C270.227 16.8563 273.668 22.249 275.749 28.7719C277.909 35.2948 278.99 43.0125 278.99 51.925V82.925C278.99 93.5167 281.63 101.073 286.912 105.594C292.274 110.115 301.636 112.375 315 112.375V124.387C302.036 124.387 291.473 123.58 283.311 121.966C275.229 120.351 268.987 118.058 264.586 115.088C260.184 112.117 257.143 108.565 255.463 104.431C253.863 100.298 253.062 95.7125 253.062 90.675V51.925C253.062 44.3688 251.942 38.1688 249.701 33.325C247.541 28.4167 243.78 24.8 238.418 22.475C233.137 20.15 225.855 18.9875 216.572 18.9875V0ZM315 112.375V135.625H286.672V112.375H315Z" fill="white" />
</svg>
