<svg width="352" height="352" viewBox="0 0 352 352" fill="none" xmlns="http://www.w3.org/2000/svg">
<rect width="352" height="352" rx="62" fill="url(#paint0_linear_3_26)"/>
<mask id="mask0_3_26" style="mask-type:alpha" maskUnits="userSpaceOnUse" x="0" y="0" width="352" height="352">
<rect width="352" height="352" rx="33" fill="url(#paint1_linear_3_26)"/>
</mask>
<g mask="url(#mask0_3_26)">
<path fill-rule="evenodd" clip-rule="evenodd" d="M202.763 9.90124C207.502 11.9265 210.241 16.9251 209.393 22.0033L189.2 143H287.817C292.053 143 295.926 145.39 297.821 149.173C299.713 152.956 299.306 157.483 296.763 160.867L162.582 339.534C159.489 343.652 153.977 345.124 149.237 343.098C144.498 341.075 141.759 336.074 142.607 330.998L162.8 210H64.1819C59.9467 210 56.0746 207.61 54.1806 203.827C52.2864 200.044 52.6952 195.517 55.2364 192.134L189.418 13.4675C192.511 9.34897 198.023 7.87596 202.763 9.90124ZM86.5457 187.667H176C179.287 187.667 182.407 189.111 184.532 191.616C186.656 194.12 187.57 197.432 187.03 200.669L172.205 289.498L265.454 165.334H176C172.713 165.334 169.593 163.89 167.468 161.385C165.344 158.88 164.43 155.569 164.97 152.331L179.795 63.5028L86.5457 187.667Z" fill="white"/>
</g>
<defs>
<linearGradient id="paint0_linear_3_26" x1="176" y1="0" x2="176" y2="352" gradientUnits="userSpaceOnUse">
<stop stop-color="#F79F2D"/>
<stop offset="1" stop-color="#FF8E0A"/>
</linearGradient>
<linearGradient id="paint1_linear_3_26" x1="176" y1="0" x2="176" y2="352" gradientUnits="userSpaceOnUse">
<stop stop-color="#F79F2D"/>
<stop offset="1" stop-color="#FF8E0A"/>
</linearGradient>
</defs>
</svg>
